<?xml version="1.0" encoding="UTF-8" standalone="no"?>
<!-- Created with Inkscape (http://www.inkscape.org/) -->

<svg
   width="500"
   height="500"
   viewBox="0 0 132.29167 132.29167"
   version="1.1"
   id="svg5"
   inkscape:version="1.1 (1:1.1+202105261517+ce6663b3b7)"
   sodipodi:docname="lefUpCorner.svg"
   xmlns:inkscape="http://www.inkscape.org/namespaces/inkscape"
   xmlns:sodipodi="http://sodipodi.sourceforge.net/DTD/sodipodi-0.dtd"
   xmlns="http://www.w3.org/2000/svg"
   xmlns:svg="http://www.w3.org/2000/svg">
  <sodipodi:namedview
     id="namedview7"
     pagecolor="#ffffff"
     bordercolor="#999999"
     borderopacity="1"
     inkscape:pageshadow="0"
     inkscape:pageopacity="0"
     inkscape:pagecheckerboard="0"
     inkscape:document-units="px"
     showgrid="false"
     units="px"
     height="499.51965px"
     inkscape:zoom="0.6727633"
     inkscape:cx="436.26042"
     inkscape:cy="243.77073"
     inkscape:window-width="1366"
     inkscape:window-height="719"
     inkscape:window-x="0"
     inkscape:window-y="25"
     inkscape:window-maximized="1"
     inkscape:current-layer="layer1"
     width="1980px" />
  <defs
     id="defs2">
    <linearGradient
       x1="0"
       y1="0"
       x2="1"
       y2="0"
       gradientUnits="userSpaceOnUse"
       gradientTransform="matrix(63.464584,154.37337,154.37337,-63.464584,-7.0631933,1464.2786)"
       spreadMethod="pad"
       id="linearGradient82078">
      <stop
         style="stop-opacity:1;stop-color:#b88619"
         offset="0"
         id="stop82062" />
      <stop
         style="stop-opacity:1;stop-color:#b88619"
         offset="0"
         id="stop82064" />
      <stop
         style="stop-opacity:1;stop-color:#f6c761"
         offset="0.131285"
         id="stop82066" />
      <stop
         style="stop-opacity:1;stop-color:#e9b637"
         offset="0.324568"
         id="stop82068" />
      <stop
         style="stop-opacity:1;stop-color:#a67713"
         offset="0.502248"
         id="stop82070" />
      <stop
         style="stop-opacity:1;stop-color:#fdcf78"
         offset="0.652488"
         id="stop82072" />
      <stop
         style="stop-opacity:1;stop-color:#c99008"
         offset="0.772093"
         id="stop82074" />
      <stop
         style="stop-opacity:1;stop-color:#966814"
         offset="1"
         id="stop82076" />
    </linearGradient>
    <linearGradient
       x1="0"
       y1="0"
       x2="1"
       y2="0"
       gradientUnits="userSpaceOnUse"
       gradientTransform="matrix(63.464683,154.37361,154.37361,-63.464683,-7.1163826,1464.3005)"
       spreadMethod="pad"
       id="linearGradient82110">
      <stop
         style="stop-opacity:1;stop-color:#b88619"
         offset="0"
         id="stop82094" />
      <stop
         style="stop-opacity:1;stop-color:#b88619"
         offset="0"
         id="stop82096" />
      <stop
         style="stop-opacity:1;stop-color:#f6c761"
         offset="0.131285"
         id="stop82098" />
      <stop
         style="stop-opacity:1;stop-color:#e9b637"
         offset="0.324568"
         id="stop82100" />
      <stop
         style="stop-opacity:1;stop-color:#a67713"
         offset="0.502248"
         id="stop82102" />
      <stop
         style="stop-opacity:1;stop-color:#fdcf78"
         offset="0.652488"
         id="stop82104" />
      <stop
         style="stop-opacity:1;stop-color:#c99008"
         offset="0.772093"
         id="stop82106" />
      <stop
         style="stop-opacity:1;stop-color:#966814"
         offset="1"
         id="stop82108" />
    </linearGradient>
    <linearGradient
       x1="0"
       y1="0"
       x2="1"
       y2="0"
       gradientUnits="userSpaceOnUse"
       gradientTransform="matrix(63.464382,154.37288,154.37288,-63.464382,-7.071085,1464.2823)"
       spreadMethod="pad"
       id="linearGradient82140">
      <stop
         style="stop-opacity:1;stop-color:#be965d"
         offset="0"
         id="stop82126" />
      <stop
         style="stop-opacity:1;stop-color:#be965d"
         offset="0.01115862"
         id="stop82128" />
      <stop
         style="stop-opacity:1;stop-color:#976f40"
         offset="0.278431"
         id="stop82130" />
      <stop
         style="stop-opacity:1;stop-color:#ffcb85"
         offset="0.5687729"
         id="stop82132" />
      <stop
         style="stop-opacity:1;stop-color:#ffcb85"
         offset="0.627451"
         id="stop82134" />
      <stop
         style="stop-opacity:1;stop-color:#ffcb85"
         offset="0.68124422"
         id="stop82136" />
      <stop
         style="stop-opacity:1;stop-color:#976f40"
         offset="1"
         id="stop82138" />
    </linearGradient>
    <linearGradient
       x1="0"
       y1="0"
       x2="1"
       y2="0"
       gradientUnits="userSpaceOnUse"
       gradientTransform="matrix(63.464756,154.37378,154.37378,-63.464756,-7.0636272,1464.2789)"
       spreadMethod="pad"
       id="linearGradient82046">
      <stop
         style="stop-opacity:1;stop-color:#b88619"
         offset="0"
         id="stop82030" />
      <stop
         style="stop-opacity:1;stop-color:#b88619"
         offset="0"
         id="stop82032" />
      <stop
         style="stop-opacity:1;stop-color:#f6c761"
         offset="0.131285"
         id="stop82034" />
      <stop
         style="stop-opacity:1;stop-color:#e9b637"
         offset="0.324568"
         id="stop82036" />
      <stop
         style="stop-opacity:1;stop-color:#a67713"
         offset="0.502248"
         id="stop82038" />
      <stop
         style="stop-opacity:1;stop-color:#fdcf78"
         offset="0.652488"
         id="stop82040" />
      <stop
         style="stop-opacity:1;stop-color:#c99008"
         offset="0.772093"
         id="stop82042" />
      <stop
         style="stop-opacity:1;stop-color:#966814"
         offset="1"
         id="stop82044" />
    </linearGradient>
  </defs>
  <g
     inkscape:label="Layer 1"
     inkscape:groupmode="layer"
     id="layer1">
    <g
       id="g82018"
       transform="matrix(1.2028095,0,0,-1.2028095,-0.24140581,1864.0583)">
      <g
         id="g82020">
        <g
           id="g82026">
          <g
             id="g82028">
            <path
               d="m 86.828,1549 c -0.7,-0.29 -1.283,-0.722 -2.326,-1.388 v 0 c -2.491,-1.592 -6.349,-2.374 -11.284,-1.029 v 0 c -3.292,0.897 -4.355,1.362 -5.771,1.277 v 0 c 0.422,0.415 0.856,0.794 1.302,1.14 v 0 h -2.212 c -0.467,-0.468 -0.907,-0.978 -1.318,-1.532 v 0 c -2.832,-3.815 -2.761,-6.731 -0.982,-9.887 v 0 c 2.844,-5.048 7.972,-7.358 13.69,-7.358 v 0 c -7.262,-1.312 -12.303,-0.654 -17.455,4.669 v 0 c -3.834,3.96 -4.065,8.047 -1.774,11.556 v 0 c 0.585,0.897 1.319,1.759 2.13,2.552 v 0 h -1.749 c -0.195,-0.25 -0.386,-0.509 -0.602,-0.821 v 0 c -1.474,-2.119 -2.309,-4.383 -2.556,-6.412 v 0 c 0.333,-2.732 1.613,-5.321 3.319,-7.436 v 0 c -3.359,1.308 -5.446,1.126 -8.581,1.274 v 0 c -3.408,0.162 -4.763,2.428 -4.748,5.854 v 0 c 0.003,0.713 -0.046,1.765 0.284,3.082 v 0 c 0.178,0.712 0.258,0.91 0.61,1.422 v 0 c 2.316,3.37 5.891,0.937 11.886,3.037 v 0 H 46.939 c -4.475,-5.803 -3.072,-13.127 3.63,-17.902 v 0 c -0.012,0 -0.026,0 -0.034,0.01 v 0 c 0.008,-0.01 0.017,-0.017 0.03,-0.022 v 0 c -4.798,0.805 -9.727,-0.234 -12.853,-4.167 v 0 c -0.671,-0.842 -1.002,-1.447 -1.284,-2.071 v 0 c -0.261,-0.581 -0.461,-1.243 -0.546,-1.673 v 0 c -0.78,-2.303 -0.819,-4.721 -0.407,-7.178 v 0 c -0.004,0.013 -0.013,0.022 -0.021,0.031 v 0 c 0.003,-0.01 0.003,-0.022 0.008,-0.035 v 0 c -3.377,4.74 -8.991,7.625 -14.409,5.584 v 0 c -0.582,-0.22 -1.184,-0.537 -1.569,-0.795 v 0 c -2.178,-1.08 -3.915,-2.761 -5.36,-4.789 v 0 c 0.004,0.013 0.004,0.026 0.009,0.035 v 0 c -0.009,-0.01 -0.017,-0.018 -0.022,-0.031 v 0 c 1.595,9.514 -4.279,15.844 -13.111,15.316 v 0 -1.351 c 0.489,0.04 0.974,0.057 1.456,0.049 v 0 C 1.86,1529.6 1.407,1529.188 1,1528.771 v 0 -1.951 c 2.81,2.434 5.089,4.03 8.862,0.02 v 0 h 0.004 v 0 c 2.577,-2.421 3.366,-5.112 0.995,-7.715 v 0 c -2.07,-2.277 -3.701,-3.642 -5.163,-6.968 v 0 c -0.283,2.669 -1.244,5.469 -2.912,7.603 v 0 H 2.782 v 0 c -0.555,0.434 -1.154,0.819 -1.782,1.157 v 0 -1.365 c 0.097,-0.081 0.191,-0.164 0.283,-0.251 v 0 l 1.044,-1.046 c 3.205,-3.369 2.26,-11.322 0.358,-14.842 v 0 C 2.212,1502.539 1.641,1501.719 1,1500.949 v 0 -3.172 c 0.365,0.291 0.727,0.586 1.084,0.886 v 0 C 1.837,1497.102 1.46,1495.819 1,1494.745 v 0 -2.879 c 1.518,2.388 2.541,5.699 2.746,8.238 v 0 c 2.023,1.829 3.927,3.805 5.735,5.913 v 0 c 0.044,-0.017 0.804,-0.332 0.861,-0.357 v 0 c -0.212,-2.768 -0.262,-5.511 -0.125,-8.236 v 0 c -1.744,-2.045 -3.512,-5.44 -4.009,-8.399 v 0 c -1.307,2.308 -2.588,3.036 -5.208,2.399 v 0 -1.377 c 0.825,0.237 1.637,0.257 2.333,-0.09 v 0 c 2.408,-0.807 2.933,-5.253 2.68,-7.14 v 0 c -0.312,-2.333 -1.962,-4.584 -3.484,-6.38 v 0 c 1.97,3.652 2.543,7.298 -1.021,9.109 v 0 0 H 1.503 c -0.171,0.056 -0.339,0.103 -0.503,0.142 v 0 -1.434 c 2.199,-0.74 1.933,-3.944 0,-7.643 v 0 -3.957 c 0.587,0.53 1.23,1.085 1.933,1.66 v 0 c 3.562,2.915 6.881,5.574 9.894,8.901 v 0 c 2.93,-8.884 5.24,-9.486 10.77,-24.232 v 0 c 0.205,-0.549 0.703,-0.828 1.196,-0.828 v 0 c 0.493,0 0.991,0.279 1.196,0.828 v 0 c 0.528,1.405 1,2.662 1.188,3.19 v 0 c 4.516,11.215 6.935,13.016 9.582,21.042 v 0 c 6.401,-7.077 6.684,-4.835 18.06,-17.01 v 0 c 0.393,-0.42 0.95,-0.486 1.397,-0.301 v 0 c 0.447,0.185 0.794,0.625 0.774,1.2 v 0 c -0.553,16.299 1.186,15.585 0.75,24.702 v 0 c -0.002,0.032 -0.005,0.064 -0.007,0.097 v 0 c 8.488,-4.277 10.439,-2.996 24.748,-9.52 v 0 c 1.074,-0.489 2.184,0.62 1.694,1.693 v 0 c -6.593,14.461 -5.221,16.217 -9.52,24.75 v 0 c 4.37,-0.22 6.719,0.089 9.868,0.399 v 0 c 2.692,0.264 5.969,0.528 11.592,0.464 v 0 c 0.55,-0.028 1.866,-0.071 3.337,-0.122 v 0 c 0.579,-0.021 1.019,0.326 1.201,0.776 v 0 c 0.188,0.447 0.123,1.003 -0.301,1.398 v 0 c -1.076,1.003 -2.038,1.904 -2.445,2.273 v 0 c -1.203,1.174 -2.4,2.347 -3.594,3.525 v 0 c -3.053,3.283 -6.245,7.972 -10.969,12.26 v 0 c 4.858,1.603 8.654,3.693 13.421,6.25 v 0 c 0.952,0.51 1.909,0.977 2.87,1.414 v 0 c 1.582,0.644 3.164,1.279 4.751,1.917 v 0 c 0.527,0.19 1.783,0.661 3.19,1.188 v 0 c 0.548,0.207 0.827,0.704 0.827,1.197 v 0 c 0,0.493 -0.279,0.99 -0.827,1.197 v 0 c -1.407,0.527 -2.663,0.999 -3.19,1.188 v 0 c -1.587,0.638 -3.169,1.273 -4.751,1.916 v 0 c -1.81,0.824 -3.68,1.851 -5.709,2.932 v 0 h -7.098 z m 0.744,-12.538 c -1.879,0.498 -5.858,2.723 -5.678,5.305 v 0 c -0.18,2.582 3.799,4.806 5.678,5.304 v 0 c 2.269,0.601 5.112,-0.047 7.354,-0.794 v 0 c -4.202,0.434 -7.852,-0.45 -8.17,-4.51 v 0 c 0.323,-4.121 4.074,-4.932 8.17,-4.511 v 0 c -0.168,-0.056 -0.335,-0.112 -0.506,-0.159 v 0 c -1.528,-0.445 -3.216,-0.877 -4.867,-0.877 v 0 c -0.671,0 -1.336,0.071 -1.981,0.242 m -22.101,1.642 c -1.478,2.381 -1.505,4.901 0,7.326 v 0 c 0.029,0.02 0.06,0.046 0.094,0.081 v 0 c 1.566,1.644 3.574,0.777 6.414,-0.089 v 0 c 2.493,-0.761 5.629,-1.521 9.671,-0.585 v 0 c -1.726,-2.223 -1.869,-3.733 0,-6.14 v 0 c -2.715,0.629 -6.586,0.527 -10.301,-0.781 v 0 c -1.695,-0.597 -2.779,-0.824 -3.551,-0.825 v 0 c -1.129,0 -1.591,0.487 -2.327,1.013 m 22.701,3.663 c -0.31,3.937 7.777,3.488 12.911,1.814 v 0 c 0.691,-0.296 1.398,-0.541 2.115,-0.772 v 0 c 0.797,-0.326 1.578,-0.673 2.303,-1.038 v 0 c -0.005,0 -0.009,0 -0.009,0 v 0 c 0,0 0.004,0 0.009,0 v 0 c -0.725,-0.365 -1.506,-0.712 -2.303,-1.038 v 0 c -0.717,-0.232 -1.424,-0.476 -2.115,-0.772 v 0 c -2.374,-0.774 -5.088,-1.239 -7.413,-1.239 v 0 c -3.203,0 -5.669,0.882 -5.498,3.053 m -15.962,-5.094 c 1.979,0.575 4.194,1.151 6.442,0.973 v 0 c 6.39,-0.507 6.067,-3.006 9.79,-3.516 v 0 c -7.331,-3.224 -15.308,-4.046 -20.995,1.544 v 0 c 0.082,0 0.165,-0.01 0.25,-0.01 v 0 c 1.233,0 2.783,0.503 4.513,1.007 M 57.207,1529.1 c -2.907,1.253 -6.116,2.918 -8.306,5.188 v 0 c 1.1,-0.207 1.994,-0.162 2.919,-0.117 v 0 c 2.233,0.106 4.651,0.213 10.616,-3.203 v 0 c 1.061,-0.608 1.847,-1.075 2.593,-1.504 v 0 c 0.652,-0.378 1.287,-0.685 1.925,-0.935 v 0 c -0.262,0 -0.526,-0.01 -0.79,-0.01 v 0 c -2.95,0 -6.075,0.213 -8.957,0.576 m -5.557,-3.276 c -1.549,0.994 -2.852,3.039 -4.52,4.185 v 0 c 3.183,0.056 6.57,-1.023 9.541,-2.209 v 0 c 2.493,-1.935 5.076,-4.206 7.295,-6.488 v 0 c -2.843,1.266 -7.841,1.615 -12.316,4.512 m -12.925,-6.703 c -2.381,2.615 -1.603,5.273 0.996,7.715 v 0 0 h 0.003 c 2.428,2.583 5.118,3.361 7.715,0.995 v 0 c 2.277,-2.07 3.659,-3.715 6.968,-5.163 v 0 c -2.671,-0.284 -5.458,-1.236 -7.602,-2.912 v 0 0 H 46.8 c -1.668,-2.134 -2.639,-4.952 -2.911,-7.603 v 0 c -1.474,3.331 -3.009,4.598 -5.164,6.968 m 32.604,8.225 c 3.107,0.274 6.19,0.805 9.254,1.631 v 0 c 1.762,-1.187 3.343,-2.649 4.83,-4.201 v 0 c -1.119,0.297 -2.308,0.128 -3.65,-0.041 v 0 c -0.808,-0.101 -1.672,-0.202 -2.609,-0.203 v 0 c -2.149,0 -4.685,0.532 -7.825,2.814 m -11.97,0.102 c 0.028,0 0.054,0 0.082,-0.01 v 0 l -0.019,-0.045 c -0.021,0.017 -0.041,0.034 -0.063,0.051 m 7.097,-6.729 c -1.83,2.023 -3.805,3.929 -5.913,5.736 v 0 l 0.356,0.86 c 2.769,-0.211 5.513,-0.262 8.236,-0.125 v 0 c 2.114,-1.8 5.517,-3.523 8.401,-4.008 v 0 c -2.407,-1.363 -3.101,-2.696 -2.307,-5.569 v 0 c -2.39,1.704 -6.014,2.884 -8.773,3.106 m 13.301,-7.356 c -1.514,1.155 -4.287,4.67 -3.154,6.944 v 0 c 0.807,2.408 5.253,2.932 7.14,2.679 v 0 c 2.329,-0.312 4.58,-1.956 6.379,-3.484 v 0 c -3.65,1.971 -7.298,2.544 -9.108,-1.019 v 0 h -0.004 0.002 c -1.239,-3.8 1.744,-5.973 5.719,-7.162 v 0 c -2.36,0.193 -5.111,0.625 -6.974,2.048 m -32.858,-9.945 c -2.023,3.75 -2.919,12.353 0.904,15.339 v 0 c 3.001,3.842 11.631,2.908 15.344,0.901 v 0 c 3.044,-1.645 5.428,-4.488 7.38,-7.299 v 0 c -3.463,3.685 -8.845,5.912 -14.289,4.635 v 0 c -0.429,-0.018 -4.135,-0.843 -5.759,-4.086 v 0 c -1.153,-2.279 -1.793,-5.911 -0.763,-9.507 v 0 c 0.821,-2.866 2.466,-5.468 4.486,-7.367 v 0 c -2.815,1.953 -5.661,4.342 -7.303,7.384 m -28.268,12.483 c 0.1,2.091 1.075,3.492 2.612,4.237 v 0 c 1.926,0.662 4.289,0.513 3.861,0.51 v 0 c 1.221,0.01 2.865,-0.191 3.886,-0.893 v 0 c 3.503,-2.407 0.751,-5.934 3.238,-12.435 v 0 c -0.007,0.01 -0.016,0.013 -0.024,0.019 v 0 c -0.323,0.262 -0.659,0.508 -0.999,0.744 v 0 c -0.079,0.055 -0.159,0.107 -0.238,0.16 v 0 c -0.496,0.332 -1.005,0.638 -1.53,0.91 v 0 c -1.218,0.635 -2.505,1.099 -3.823,1.351 v 0 c -0.273,0.052 -0.546,0.102 -0.821,0.135 v 0 c -0.275,-0.033 -0.549,-0.083 -0.822,-0.135 v 0 c -1.052,-0.201 -2.086,-0.534 -3.08,-0.984 v 0 c -0.25,-0.113 -0.496,-0.238 -0.741,-0.365 v 0 c -0.992,-0.516 -2.036,-1.22 -2.793,-1.835 v 0 c 1.298,3.343 1.119,5.307 1.274,8.581 m 63.663,2.045 c 0.005,0 0.004,0 0.002,0.01 v 0 c 1.17,3.584 8.149,0.434 12.397,-3.212 v 0 c 0.52,-0.527 1.068,-1.016 1.628,-1.495 v 0 c 0.604,-0.592 1.18,-1.201 1.699,-1.805 v 0 c -0.002,10e-4 -0.005,0 -0.008,-10e-4 v 0 c 0.001,0 0.002,-0.01 0.003,-0.01 v 0 c -0.794,-0.061 -1.631,-0.085 -2.476,-0.076 v 0 c -0.735,0.056 -1.468,0.099 -2.208,0.093 v 0 c -5.975,0.456 -12.683,3.257 -11.037,6.496 m -43.535,-8.057 c -1.178,2.952 -2.263,6.35 -2.207,9.541 v 0 c 1.436,-2.094 3.137,-2.593 4.781,-5.513 v 0 c 1.157,-2.055 1.828,-4.139 2.443,-6.405 v 0 c 0.741,-2.726 0.883,-3.594 1.471,-4.917 v 0 c -2.321,2.256 -4.605,4.868 -6.488,7.294 M 5.348,1505.77 c 3.106,11.837 5.119,9.918 7.688,13.66 v 0 c 0.054,-3.184 -1.025,-6.571 -2.209,-9.541 v 0 c -1.926,-2.482 -4.196,-5.066 -6.488,-7.294 v 0 c 0.478,1.073 0.682,1.93 1.009,3.175 m 67.939,5.591 c -1.583,2.751 -3.387,5.306 -5.389,7.698 v 0 c 3.484,-0.553 6.966,-2.298 8.874,-5.037 v 0 c 1.122,-1.611 1.408,-2.239 2.9,-3.106 v 0 c -0.339,-0.01 -0.678,-0.011 -1.017,-0.011 v 0 c -1.809,0 -3.612,0.114 -5.368,0.456 m -36.192,-9.83 c -0.2,0.349 -0.399,0.692 -0.598,1.032 v 0 c -0.307,0.526 -0.61,1.045 -0.904,1.56 v 0 c -0.926,1.617 -1.766,3.215 -2.396,4.987 v 0 c -0.146,0.413 -0.282,0.837 -0.404,1.273 v 0 c -0.102,0.365 -0.203,0.733 -0.286,1.117 v 0 c -0.385,1.802 0.138,4.169 -0.236,6.159 v 0 c 2.272,-2.19 3.933,-5.392 5.19,-8.306 v 0 c 0.399,-3.181 0.612,-6.608 0.569,-9.747 v 0 c -0.248,0.638 -0.557,1.274 -0.935,1.925 m -24.969,7.822 c 1.261,2.924 2.917,6.114 5.188,8.306 v 0 c -0.372,-1.99 0.15,-4.357 -0.236,-6.159 v 0 c -0.081,-0.384 -0.182,-0.752 -0.285,-1.118 v 0 c -0.122,-0.435 -0.257,-0.859 -0.404,-1.272 v 0 c -1.392,-3.913 -3.909,-7.13 -4.833,-9.504 v 0 c -0.044,3.272 0.192,6.742 0.57,9.747 m 59.022,-5.674 c -7.807,1.712 -9.192,9.846 -11.887,12.234 v 0 c 7.988,-0.072 13.029,-6.281 15.939,-13.752 v 0 c -1.398,1.067 -2.095,1.089 -4.052,1.518 m -10.184,-1.912 c -5.712,5.901 -9.497,4.153 -9.996,8.65 v 0 c 0.636,2.728 2.399,4.527 5.176,5.175 v 0 c 4.512,-0.502 2.676,-4.214 8.649,-9.996 v 0 c 0.682,-0.66 1.506,-1.32 2.376,-1.865 v 0 c -2.801,-0.345 -3.969,-1.335 -4.34,-4.339 v 0 c -0.544,0.869 -1.205,1.694 -1.865,2.375 m -31.489,6.096 c 1.995,-1.303 3.815,-3.338 5.099,-5.335 v 0 c 1.823,-2.835 3.152,-6.208 1.763,-13.896 v 0 c 0,2.961 -0.53,5.639 -2.04,8.364 v 0 c -0.368,0.666 -0.693,1.189 -1.13,1.759 v 0 c -1.291,1.682 -3.508,3.289 -3.902,3.406 v 0 c -1.306,0.778 -2.952,1.433 -4.472,1.433 v 0 c -1.414,0 -2.935,-0.566 -4.186,-1.271 v 0 c -4.974,-2.8 -7.357,-7.939 -7.357,-13.691 v 0 c -1.306,7.224 -0.689,12.272 4.668,17.456 v 0 c 0.693,0.671 1.43,1.277 2.194,1.775 v 0 c 1.386,0.905 3.044,1.565 4.681,1.366 v 0 c 1.642,0.201 3.303,-0.466 4.682,-1.366 m 28.005,-12.82 c -0.154,0.118 -0.311,0.233 -0.461,0.357 v 0 c -4.946,4.046 -6.335,7.761 -6.372,11.898 v 0 c 2.305,-2.601 10.541,-4.169 12.233,-11.886 v 0 c 0.431,-1.959 0.454,-2.656 1.519,-4.053 v 0 c -2.459,0.958 -4.846,2.097 -6.919,3.684 M 39.111,1507.2 c 0.017,-0.02 0.034,-0.04 0.051,-0.06 v 0 c -0.047,-0.019 -0.044,-0.019 -0.044,-0.019 v 0 c -0.002,0.027 -0.004,0.053 -0.007,0.079 m -28.688,-0.062 c 0.017,0.021 0.035,0.042 0.052,0.062 v 0 c -0.003,-0.027 -0.004,-0.054 -0.007,-0.081 v 0 c 0,10e-4 -0.005,0 -0.045,0.019 m 28.947,-9.709 c 0.136,2.722 0.087,5.463 -0.125,8.23 v 0 c 0.08,0.033 0.763,0.316 0.862,0.356 v 0 c 1.806,-2.106 3.709,-4.08 5.731,-5.909 v 0 c 0.211,-2.66 1.356,-6.319 3.109,-8.772 v 0 c -2.665,0.729 -4.089,0.292 -5.571,-2.307 v 0 c -0.486,2.909 -2.234,6.323 -4.006,8.402 m 26.062,-3.801 c -0.973,1.677 -2.212,6.064 -0.261,7.762 v 0 c 1.698,1.951 6.085,0.712 7.761,-0.262 v 0 c 2.073,-1.202 3.548,-3.631 4.644,-5.764 v 0 c -2.667,3.277 -5.875,5.237 -8.966,2.591 v 0 h -0.005 v 0 c -2.646,-3.092 -0.686,-6.3 2.59,-8.967 v 0 c -2.132,1.096 -4.56,2.571 -5.763,4.644 m -44.61,7.113 c 0.099,0.117 0.302,0.338 0.309,0.348 v 0 c 2.381,1.479 4.901,1.505 7.324,0 v 0 c 0.007,-0.01 0.213,-0.233 0.311,-0.349 v 0 c 2.545,-3.024 -2.861,-7.375 -0.903,-15.83 v 0 c -2.222,1.725 -3.732,1.868 -6.141,0 v 0 c 1.953,8.426 -3.469,12.782 -0.9,15.831 m 9.816,-18.682 c -4.173,6.531 0.452,13.661 0.249,17.054 v 0 c 5.595,-5.694 4.767,-13.662 1.544,-20.995 v 0 c -0.242,1.76 -0.705,2.236 -1.793,3.941 m -11.939,17.054 c -0.158,-2.657 2.317,-6.858 1.973,-11.205 v 0 c -0.507,-6.392 -3.006,-6.067 -3.516,-9.79 v 0 c -3.207,7.294 -4.063,15.29 1.543,20.995 m 30.075,-4.665 c -0.695,1.363 -1.044,2.777 -1.273,4.215 v 0 c 2.391,-2.003 4.946,-3.806 7.698,-5.389 v 0 c 0.406,-2.086 0.49,-4.238 0.444,-6.387 v 0 c -1.831,3.135 -4.024,1.985 -6.869,7.561 m 20.835,2.508 c 2.666,3.114 9.41,-3.579 12.254,-12.253 v 0 c -0.001,0 -0.004,0 -0.007,0 v 0 c 0,0 0,-0.01 0.002,-0.01 v 0 c -8.288,2.718 -15.464,9.507 -12.254,12.256 v 0 c 0.002,0 0.004,0 0.004,0 v 0 c 10e-4,0 10e-4,0 10e-4,0 m -32.026,-10.979 c 0.826,3.065 1.357,6.147 1.632,9.255 v 0 c 4.965,-6.838 1.662,-10.628 2.569,-14.085 v 0 c -1.551,1.486 -3.014,3.068 -4.201,4.83 m -29.926,-0.583 c -0.47,2.627 0.157,6.315 2.715,9.837 v 0 c 0.274,-3.107 0.805,-6.189 1.631,-9.254 v 0 c -1.187,-1.762 -2.648,-3.343 -4.2,-4.83 v 0 c 0.442,1.669 0.2,2.309 -0.146,4.247 m 35.917,-2.581 c -0.254,1.892 0.27,6.339 2.679,7.145 v 0 c 2.274,1.134 5.789,-1.641 6.947,-3.157 v 0 c 1.401,-1.838 1.881,-4.675 2.044,-6.972 v 0 c -1.187,3.976 -3.36,6.956 -7.163,5.717 v 0 c -3.619,-1.841 -2.944,-5.55 -1.024,-9.107 v 0 c -1.513,1.744 -3.176,4.089 -3.483,6.374 m -13.476,-3.825 c 0.601,-2.269 -0.047,-5.112 -0.794,-7.354 v 0 c 0.433,4.202 -0.45,7.852 -4.511,8.169 v 0 c -4.12,-0.322 -4.932,-4.072 -4.512,-8.169 v 0 c -0.745,2.237 -1.394,5.085 -0.792,7.354 v 0 c 0.497,1.878 2.722,5.858 5.304,5.678 v 0 c 2.581,0.18 4.807,-3.8 5.305,-5.678 m 18.515,5.274 c 3.872,1.975 7.106,-7.682 6.516,-15.72 v 0 c -0.002,0 -0.008,0.01 -0.008,0.01 v 0 c 0,0 -0.002,-0.01 0,-0.01 v 0 c -6.889,5.946 -10.292,14.495 -6.508,15.724 M 27.76,1470.686 c -0.314,-3.349 -1.44,-5.825 -1.925,-7.324 v 0 c -0.325,-0.797 -0.673,-1.578 -1.037,-2.303 v 0 c 0,0.01 -0.005,0.01 -0.005,0.01 v 0 c 0,0 -0.004,0 -0.004,-0.01 v 0 c -1.225,2.437 -1.103,2.767 -1.81,4.417 v 0 c -1.841,5.645 -1.934,13.208 1.814,12.912 v 0 c 3.371,0.266 3.161,-5.664 2.967,-7.702 M 1,1549 v -1.527 c 0.878,-0.362 1.605,-1.002 2.163,-2.156 v 0 c 0.508,-1.475 1.629,-7.494 -2.163,-9.242 v 0 -3.354 c 5.131,4.849 5.483,11.238 1.625,16.279 v 0 z"
               style="fill:url(#linearGradient82046);stroke:none"
               id="path82048" />
          </g>
        </g>
      </g>
    </g>
    <g
       id="g82050"
       transform="matrix(1.2028095,0,0,-1.2028095,-0.24140581,1864.0583)">
      <g
         id="g82052">
        <g
           id="g82058">
          <g
             id="g82060">
            <path
               d="m 35.966,1549 c -0.434,-0.238 -1.004,-0.574 -1.409,-0.86 v 0 c -0.169,0.165 -0.488,0.482 -0.868,0.86 v 0 h -2.004 c 0.675,-0.676 1.382,-1.38 1.783,-1.775 v 0 c -0.22,-0.22 -0.596,-0.664 -0.811,-1.011 v 0 c -0.523,1.001 -1.378,2.017 -2.414,2.786 v 0 h -3.077 c 0.052,-0.021 0.104,-0.043 0.157,-0.065 v 0 l 0.36,-0.148 c 0.009,0 0.014,-0.01 0.018,-0.01 v 0 c 0.004,0 0.008,0 0.013,0 v 0 c 2.8,-1.403 2.686,-1.27 4.09,-4.091 v 0 c 0,0 0,-0.01 0.005,-0.013 v 0 c 0,0 0.004,-0.01 0.004,-0.017 v 0 c 0.338,-1.014 1.368,-2.528 0.148,-5.419 v 0 l -0.148,-0.361 c 0,-0.01 -0.004,-0.013 -0.004,-0.017 v 0 c -0.005,0 -0.005,-0.01 -0.005,-0.013 v 0 c -1.41,-2.833 -1.303,-2.695 -4.09,-4.091 v 0 c -0.005,0 -0.009,0 -0.013,-0.01 v 0 c -0.004,0 -0.009,0 -0.018,0 v 0 c -2.961,-0.987 -2.694,-1.029 -5.781,0 v 0 c -0.008,0 -0.012,0 -0.017,0 v 0 c -0.003,0.01 -0.008,0.01 -0.012,0.01 v 0 c -2.936,1.471 -2.767,1.442 -4.092,4.091 v 0 c 0,0 0,0.01 -0.003,0.013 v 0 c 0,0 -0.005,0.01 -0.005,0.017 v 0 c -0.391,1.173 -1.356,2.556 -0.148,5.42 v 0 c 0,0 0.148,0.359 0.148,0.36 v 0 c 0,0.01 0.005,0.013 0.005,0.017 v 0 c 0.003,0.01 0.003,0.01 0.003,0.013 v 0 c 1.407,2.813 1.273,2.678 4.092,4.091 v 0 c 0.004,0 0.009,0 0.012,0 v 0 c 0.005,0 0.009,0.01 0.017,0.01 v 0 c 0.176,0.058 0.361,0.133 0.56,0.213 v 0 h -3.117 c -0.955,-0.709 -1.841,-1.685 -2.416,-2.786 v 0 c -0.214,0.347 -0.589,0.79 -0.811,1.011 v 0 c 0.398,0.392 1.105,1.097 1.783,1.775 v 0 h -2.003 c -0.377,-0.375 -0.695,-0.69 -0.869,-0.86 v 0 c -0.404,0.285 -0.976,0.622 -1.409,0.86 v 0 H 5.213 c 3.393,-4.696 3.253,-10.051 -0.086,-14.583 v 0 c -0.111,-0.073 -0.179,-0.184 -0.217,-0.313 v 0 c -0.147,-0.214 -0.138,-0.42 -0.039,-0.588 v 0 c 0.096,-0.355 0.578,-0.506 0.819,-0.459 v 0 c 5.504,-0.83 9.502,-4.482 10.394,-10.394 v 0 c -0.049,-0.24 0.102,-0.722 0.459,-0.819 v 0 c 0.167,-0.099 0.373,-0.107 0.588,0.039 v 0 c 0.127,0.039 0.239,0.107 0.313,0.219 v 0 c 4.649,3.424 10.044,3.429 14.699,0 v 0 c 0.072,-0.112 0.184,-0.18 0.313,-0.219 v 0 c 0.214,-0.146 0.42,-0.138 0.588,-0.039 v 0 c 0.355,0.097 0.506,0.579 0.459,0.819 v 0 c 0.86,5.707 4.681,9.533 10.394,10.394 v 0 c 0.238,-0.047 0.721,0.103 0.819,0.459 v 0 c 0.099,0.168 0.108,0.374 -0.039,0.588 v 0 c -0.038,0.129 -0.107,0.24 -0.219,0.313 v 0 c -3.471,4.712 -3.345,10.068 -0.085,14.583 v 0 z m -24.739,-2.77 c -1.392,0.572 -2.334,1.465 -3.321,2.53 v 0 c 4.207,0.172 6.796,-1.793 7.75,-3.207 v 0 c -0.317,-0.062 -0.646,-0.09 -0.981,-0.09 v 0 c -1.171,0 -2.412,0.342 -3.448,0.767 m 22.704,-0.677 c 1.168,1.733 3.891,3.363 7.749,3.207 v 0 c -2.177,-2.353 -4.68,-3.307 -6.674,-3.307 v 0 c -0.379,0 -0.739,0.034 -1.075,0.1 m 5.836,-7.35 c -0.705,2.496 -0.703,4.642 0,7.128 v 0 c 0.432,0.239 1.189,0.77 1.578,1.11 v 0 c -1.188,-3.005 -1.217,-6.26 0,-9.348 v 0 c -0.439,0.383 -1.222,0.913 -1.578,1.11 m -31.527,8.238 c 0.441,-0.385 1.226,-0.915 1.579,-1.11 v 0 c 0.712,-2.522 0.695,-4.67 0,-7.128 v 0 c -0.374,-0.207 -1.134,-0.722 -1.579,-1.11 v 0 c 1.196,3.022 1.208,6.297 0,9.348 m 27.964,-7.071 c -0.015,1.423 -0.011,3.712 0,4.794 v 0 c 0.628,0.106 1.504,0.35 1.933,0.489 v 0 c -0.405,-1.861 -0.434,-3.78 0,-5.772 v 0 c -0.429,0.138 -1.301,0.382 -1.933,0.489 m -24.756,5.283 c 0.429,-0.138 1.302,-0.382 1.934,-0.489 v 0 c 0.015,-1.423 0.012,-3.712 0,-4.794 v 0 c -0.629,-0.107 -1.505,-0.351 -1.934,-0.489 v 0 c 0.419,1.917 0.428,3.813 0,5.772 m 22.05,-0.467 c 0.4,-0.097 0.977,-0.147 1.291,-0.147 v 0 c -0.012,-1.06 -0.01,-3.623 0,-4.545 v 0 c -0.316,0 -0.892,-0.049 -1.291,-0.146 v 0 c 0.445,1.413 0.502,3.24 0,4.838 m -18.7,-4.692 c 0.011,1.066 0.01,3.623 0,4.545 v 0 c 0.312,0 0.89,0.05 1.29,0.147 v 0 c -0.445,-1.418 -0.502,-3.244 0,-4.838 v 0 c -0.4,0.097 -0.977,0.146 -1.29,0.146 m -6.892,-4.721 c 0.88,0.951 1.94,2.021 3.52,2.616 v 0 c 1.306,0.49 2.848,0.862 4.23,0.591 v 0 c -1.144,-1.696 -3.682,-3.218 -7.238,-3.218 v 0 c -0.168,0 -0.339,0 -0.512,0.011 m 26.025,3.207 c 1.426,0.279 3.096,-0.129 4.428,-0.676 v 0 c 1.396,-0.574 2.334,-1.463 3.321,-2.531 v 0 c -0.172,-0.01 -0.342,-0.011 -0.509,-0.011 v 0 c -3.961,0 -6.361,1.914 -7.24,3.218 m -4.691,-4.078 c 1.311,0.684 2.645,1.938 3.417,3.419 v 0 c 0.215,-0.348 0.59,-0.792 0.811,-1.013 v 0 c -0.724,-0.713 -2.489,-2.478 -3.216,-3.217 v 0 c -0.221,0.222 -0.665,0.597 -1.012,0.811 m -13.122,2.406 c 0.22,0.22 0.596,0.663 0.811,1.013 v 0 c 0.683,-1.311 1.937,-2.645 3.417,-3.419 v 0 c -0.348,-0.214 -0.793,-0.591 -1.011,-0.811 v 0 c -0.716,0.727 -2.486,2.498 -3.217,3.217 m 15.047,-4.306 c 0.582,0.596 2.797,2.81 3.392,3.393 v 0 c 0.511,-0.362 1.286,-0.803 1.716,-1.025 v 0 c -1.654,-1.06 -3.004,-2.4 -4.083,-4.082 v 0 c -0.222,0.428 -0.663,1.204 -1.025,1.714 m -17.851,2.368 c 0.429,0.222 1.204,0.662 1.715,1.025 v 0 c 0.69,-0.675 2.869,-2.857 3.392,-3.393 v 0 c -0.362,-0.51 -0.803,-1.286 -1.025,-1.714 v 0 c -1.061,1.653 -2.399,3.002 -4.082,4.082 m 19.545,-5.712 c 1.257,2.25 2.804,3.791 5.043,5.043 v 0 c 0.536,-0.159 1.218,-0.288 1.9,-0.334 v 0 c -2.946,-1.274 -5.309,-3.608 -6.608,-6.609 v 0 c -0.046,0.674 -0.173,1.356 -0.335,1.9 m -23.074,4.709 c 0.674,0.045 1.357,0.173 1.899,0.334 v 0 c 2.253,-1.259 3.793,-2.807 5.043,-5.043 v 0 c -0.16,-0.537 -0.288,-1.22 -0.334,-1.9 v 0 c -1.242,2.874 -3.546,5.286 -6.608,6.609 m 17.427,-0.305 c -0.098,-0.4 -0.146,-0.977 -0.146,-1.291 v 0 c -1.066,0.012 -3.622,0.011 -4.545,0 v 0 c 0,0.315 -0.05,0.892 -0.146,1.291 v 0 c 0.7,-0.22 1.548,-0.351 2.432,-0.351 v 0 c 0.8,0 1.629,0.107 2.405,0.351 m 1.96,-4.661 c -0.493,1.309 -0.862,2.849 -0.593,4.228 v 0 c 1.299,-0.876 3.385,-3.38 3.208,-7.749 v 0 c -0.955,0.884 -2.022,1.943 -2.615,3.521 m -8.165,4.228 c 0.414,-2.117 -0.385,-5.137 -3.208,-7.749 v 0 c -0.171,4.23 1.832,6.822 3.208,7.749 m 1.389,-2.274 c 1.615,0.017 3.751,0.011 4.794,0 v 0 c 0.106,-0.624 0.351,-1.503 0.49,-1.933 v 0 c -1.913,0.418 -3.81,0.429 -5.773,0 v 0 c 0.139,0.43 0.382,1.303 0.489,1.933 m -1.167,-3.563 c 2.489,0.704 4.643,0.703 7.127,0 v 0 c 0.206,-0.37 0.718,-1.126 1.111,-1.577 v 0 c -0.004,10e-4 -4.238,2.021 -9.347,0 v 0 c 0.382,0.44 0.908,1.214 1.109,1.577"
               style="fill:url(#linearGradient82078);stroke:none"
               id="path82080" />
          </g>
        </g>
      </g>
    </g>
    <g
       id="g82082"
       transform="matrix(1.2028095,0,0,-1.2028095,-0.24140581,1864.0583)">
      <g
         id="g82084">
        <g
           id="g82090">
          <g
             id="g82092">
            <path
               d="m 22.619,1547.242 c -0.882,-0.251 -2.99,-2.21 -3.302,-3.301 v 0 c -0.59,-2.11 -0.217,-4.078 0.069,-4.507 v 0 c 3.395,-6.131 11.002,-3.57 11.227,2.333 v 0 c -0.071,1.834 -0.432,2.757 -1.708,4.113 v 0 c -1.104,1.038 -2.332,1.707 -4.013,1.707 v 0 c -0.677,10e-4 -1.427,-0.108 -2.273,-0.345 m 0.463,-9.609 c -0.938,0.545 -1.864,1.461 -2.422,2.423 v 0 c -0.275,1.023 -0.285,2.364 0,3.422 v 0 c 0.543,0.936 1.458,1.862 2.422,2.423 v 0 c 1.022,0.273 2.362,0.284 3.422,0 v 0 c 0.931,-0.542 1.859,-1.452 2.423,-2.423 v 0 c 0.274,-1.026 0.283,-2.367 0,-3.422 v 0 c -0.543,-0.935 -1.456,-1.862 -2.423,-2.423 v 0 c -0.516,-0.138 -1.113,-0.209 -1.714,-0.209 v 0 c -0.589,0 -1.183,0.068 -1.708,0.209"
               style="fill:url(#linearGradient82110);stroke:none"
               id="path82112" />
          </g>
        </g>
      </g>
    </g>
    <g
       id="g82114"
       transform="matrix(1.2028095,0,0,-1.2028095,-0.24140581,1864.0583)">
      <g
         id="g82116">
        <g
           id="g82122">
          <g
             id="g82124">
            <path
               d="m 24.554,1543.891 c -0.673,-0.06 -0.556,0 -1.096,-0.453 v 0 c -0.145,-0.123 -0.652,-0.664 -0.706,-0.826 v 0 c -0.079,-0.145 -0.099,-0.913 -0.084,-1.084 v 0 c 0.061,-0.671 0,-0.556 0.455,-1.096 v 0 c 0.121,-0.146 0.663,-0.653 0.825,-0.707 v 0 c 0.145,-0.078 0.913,-0.098 1.084,-0.083 v 0 c 0.429,0.038 0.829,-0.038 1.613,1.019 v 0 c 0.402,0.321 0.402,1.89 0,2.212 v 0 c -0.607,0.819 -1.054,1.038 -1.713,1.038 v 0 c -0.118,0 -0.244,-0.01 -0.378,-0.02"
               style="fill:url(#linearGradient82140);stroke:none"
               id="path82142" />
          </g>
        </g>
      </g>
    </g>
  </g>
</svg>
