<?xml version="1.0" encoding="UTF-8" standalone="no"?>
<!-- Created with Inkscape (http://www.inkscape.org/) -->

<svg
   width="300"
   height="300"
   viewBox="0 0 79.374996 79.375002"
   version="1.1"
   id="svg5"
   xmlns="http://www.w3.org/2000/svg"
   xmlns:svg="http://www.w3.org/2000/svg">
  <defs
     id="defs2">
    <linearGradient
       x1="0"
       y1="0"
       x2="1"
       y2="0"
       gradientUnits="userSpaceOnUse"
       gradientTransform="matrix(42.504044,0,0,-42.504044,594.80365,1497.3881)"
       spreadMethod="pad"
       id="linearGradient82184">
      <stop
         style="stop-opacity:1;stop-color:#746161"
         offset="0"
         id="stop82172" />
      <stop
         style="stop-opacity:1;stop-color:#746161"
         offset="0.34477225"
         id="stop82174" />
      <stop
         style="stop-opacity:1;stop-color:#ffffff"
         offset="0.631285"
         id="stop82176" />
      <stop
         style="stop-opacity:1;stop-color:#1d1d1b"
         offset="0.81814075"
         id="stop82178" />
      <stop
         style="stop-opacity:1;stop-color:#1d1d1b"
         offset="0.994413"
         id="stop82180" />
      <stop
         style="stop-opacity:1;stop-color:#1d1d1b"
         offset="1"
         id="stop82182" />
    </linearGradient>
    <linearGradient
       x1="0"
       y1="0"
       x2="1"
       y2="0"
       gradientUnits="userSpaceOnUse"
       gradientTransform="matrix(42.504044,0,0,-42.504044,594.80365,1502.6104)"
       spreadMethod="pad"
       id="linearGradient82212">
      <stop
         style="stop-opacity:1;stop-color:#746161"
         offset="0"
         id="stop82200" />
      <stop
         style="stop-opacity:1;stop-color:#746161"
         offset="0.34477225"
         id="stop82202" />
      <stop
         style="stop-opacity:1;stop-color:#ffffff"
         offset="0.631285"
         id="stop82204" />
      <stop
         style="stop-opacity:1;stop-color:#1d1d1b"
         offset="0.81814075"
         id="stop82206" />
      <stop
         style="stop-opacity:1;stop-color:#1d1d1b"
         offset="0.994413"
         id="stop82208" />
      <stop
         style="stop-opacity:1;stop-color:#1d1d1b"
         offset="1"
         id="stop82210" />
    </linearGradient>
    <linearGradient
       x1="0"
       y1="0"
       x2="1"
       y2="0"
       gradientUnits="userSpaceOnUse"
       gradientTransform="matrix(61.640167,0,0,-61.640167,596.17297,1505.541)"
       spreadMethod="pad"
       id="linearGradient82244">
      <stop
         style="stop-opacity:1;stop-color:#b88619"
         offset="0"
         id="stop82228" />
      <stop
         style="stop-opacity:1;stop-color:#b88619"
         offset="0"
         id="stop82230" />
      <stop
         style="stop-opacity:1;stop-color:#f6c761"
         offset="0.131285"
         id="stop82232" />
      <stop
         style="stop-opacity:1;stop-color:#e9b637"
         offset="0.324568"
         id="stop82234" />
      <stop
         style="stop-opacity:1;stop-color:#a67713"
         offset="0.502248"
         id="stop82236" />
      <stop
         style="stop-opacity:1;stop-color:#fdcf78"
         offset="0.652488"
         id="stop82238" />
      <stop
         style="stop-opacity:1;stop-color:#c99008"
         offset="0.772093"
         id="stop82240" />
      <stop
         style="stop-opacity:1;stop-color:#966814"
         offset="1"
         id="stop82242" />
    </linearGradient>
  </defs>
  <g
     id="layer1">
    <g
       id="g82160"
       transform="matrix(0.97836088,0,0,-0.97836088,-574.35553,1509.0364)">
      <g
         id="g82162">
        <g
           id="g82168">
          <g
             id="g82170">
            <path
               d="m 605.377,1517.412 h -2.963 -0.073 c -1.695,-3.617 -2.644,-7.65 -2.644,-11.902 v 0 c 0,-15.383 12.402,-27.921 27.732,-28.146 v 0 2.717 c -13.832,0.226 -25.015,11.545 -25.015,25.429 v 0 c 0,3.107 0.563,6.083 1.588,8.837 v 0 h 22.884 v 3.065 z"
               style="fill:url(#linearGradient82184);stroke:none"
               id="path82186" />
          </g>
        </g>
      </g>
    </g>
    <g
       id="g82188"
       transform="matrix(0.97836088,0,0,-0.97836088,-574.35553,1509.0364)">
      <g
         id="g82190">
        <g
           id="g82196">
          <g
             id="g82198">
            <path
               d="m 610.997,1511.609 v -17.997 h 2.868 v 10.39 h 6.696 V 1507 h -6.696 v 4.609 z"
               style="fill:url(#linearGradient82212);stroke:none"
               id="path82214" />
          </g>
        </g>
      </g>
    </g>
    <g
       id="g82216"
       transform="matrix(0.97836088,0,0,-0.97836088,-574.35553,1509.0364)">
      <g
         id="g82218">
        <g
           id="g82224">
          <g
             id="g82226">
            <path
               d="m 603.579,1519.76 h 3.212 c 4.578,6.744 12.308,11.185 21.058,11.185 v 0 c 14.024,0 25.434,-11.41 25.434,-25.435 v 0 c 0,-12.355 -8.854,-22.679 -20.551,-24.962 v 0 23.562 h 3.412 1.762 0.619 v 0.029 c 3.382,0.313 6.032,3.158 6.032,6.623 v 0 c 0,3.464 -2.65,6.308 -6.032,6.62 v 0 0.03 h -0.619 -1.762 -6.454 v -3.065 h 7.611 c 1.855,-0.197 3.299,-1.766 3.299,-3.673 v 0 c 0,-2.041 -1.654,-3.695 -3.694,-3.695 v 0 h -0.762 -3.412 -0.402 -2.64 v -26.836 -0.094 -2.629 c 14.668,0.951 26.31,13.186 26.31,28.09 v 0 c 0,15.522 -12.629,28.151 -28.151,28.151 v 0 c -10.328,0 -19.372,-5.59 -24.27,-13.901"
               style="fill:url(#linearGradient82244);stroke:none"
               id="path82246" />
          </g>
        </g>
      </g>
    </g>
    <text
       xml:space="preserve"
       style="font-style:normal;font-weight:normal;font-size:5.13626px;line-height:1.25;font-family:sans-serif;fill:#ececec;fill-opacity:1;stroke:none;stroke-width:0.128407"
       x="8.2304916"
       y="89.626648"
       id="text855"
       transform="scale(1.2359154,0.80911687)"><tspan
         id="tspan853"
         style="font-style:normal;font-variant:normal;font-weight:bold;font-stretch:normal;font-family:'Noto Serif Gurmukhi';-inkscape-font-specification:'Noto Serif Gurmukhi Bold';fill:#ececec;stroke-width:0.128407"
         x="8.2304916"
         y="89.626648">FORCE PREFABRIK</tspan></text>
  </g>
</svg>
